Coordinates
version=1
nRows=8
nColumns=36
inDegrees=yes

Units are S.I. units (second, meters, Newtons, ...)
If the header above contains a line with 'inDegrees', this indicates whether rotational values are in degrees (yes) or radians (no).

endheader
time	pelvis_tilt	pelvis_list	pelvis_rotation	pelvis_tx	pelvis_ty	pelvis_tz	hip_flexion_r	hip_adduction_r	hip_rotation_r	knee_angle_r	knee_angle_r_beta	ankle_angle_r	subtalar_angle_r	mtp_angle_r	hip_flexion_l	hip_adduction_l	hip_rotation_l	knee_angle_l	knee_angle_l_beta	ankle_angle_l	subtalar_angle_l	mtp_angle_l	lumbar_extension	lumbar_bending	lumbar_rotation	arm_flex_r	arm_add_r	arm_rot_r	elbow_flex_r	pro_sup_r	arm_flex_l	arm_add_l	arm_rot_l	elbow_flex_l	pro_sup_l
      0.00000000	      2.21037996	     -1.14454636	      3.06951102	     -1.12394053	      1.41071697	     -0.05319689	     -1.16018272	      1.60655139	      3.50132689	      6.79688957	      0.11862810	      7.41545522	     -3.99270180	     -6.04901076	      0.27302317	     -2.21553925	      0.59209496	      7.87360201	      0.13742028	     10.22413764	      1.17748178	     -6.04901076	    -11.65192060	      1.00840432	     -0.37526358	      0.45593333	     -6.35228479	      3.84727591	     27.60427611	     80.57886143	      2.75630007	     -5.87331816	      8.69775165	     24.45690525	     74.14674804
      0.00416670	      0.26268940	     -0.85124907	      3.05949153	     -1.12144247	      1.40973015	     -0.05248715	      0.64680547	      1.25652609	      4.00832692	      6.49335229	      0.11333038	      8.77669029	     -1.69849573	     -6.20731553	      2.33855368	     -1.41273240	      1.58822703	      7.87604780	      0.13746297	      8.84291105	      1.08485914	     -6.20731553	     -8.42102052	      0.48029747	     -0.36531997	     -0.56304732	     -5.30955246	      0.03833773	     26.89857875	     79.51164542	      2.20514996	     -4.98831625	      4.51969559	     23.67074801	     73.41703783
      0.00833330	     -0.70315645	     -0.21567243	      2.61924721	     -1.12046813	      1.40148331	     -0.04977979	      1.20762981	      0.65228180	      3.81702897	      5.67195038	      0.09899421	      9.30619837	     -1.20339832	     -6.56489476	      3.27759336	     -0.81650841	      0.99042244	      7.93037428	      0.13841114	      8.65903950	      1.55245876	     -6.56489476	     -7.01723895	     -0.67123580	      0.16651765	     -1.75557387	     -4.18284025	     -4.69786840	     28.17877627	     83.82418982	      1.64983184	     -5.15223452	      1.90352367	     24.46827617	     78.84707076
      0.01250000	     -0.60201860	      0.07702390	      2.35265665	     -1.12153326	      1.40108648	     -0.05002216	      1.00027901	      0.34586233	      3.78041513	      5.31149068	      0.09270300	      9.82802362	     -0.66080373	     -6.62380251	      2.87592138	     -0.51276273	      1.00647772	      7.50808493	      0.13104080	      8.53031112	      1.12036260	     -6.62380251	     -7.14886253	     -1.18428762	      0.43462496	     -1.91431121	     -4.13206774	     -4.40193705	     28.54169798	     83.21093292	      1.48198944	     -5.57025241	      2.22151232	     24.96090706	     78.36653000
      0.01666670	     -0.55442068	      0.20891769	      2.28742921	     -1.12114081	      1.40313793	     -0.04939473	      0.70556970	      0.24384506	      3.57171704	      4.85442670	      0.08472573	     10.07726501	     -0.02627530	     -6.75975503	      2.62799048	     -0.35061480	      1.04640828	      7.22740744	      0.12614206	      8.62166048	      0.94947720	     -6.75975503	     -7.28792730	     -1.36042900	      0.61700346	     -2.08929745	     -4.14484829	     -3.72306274	     28.92676155	     81.21130877	      1.49908156	     -5.68955296	      2.89511640	     25.29280755	     76.73246190
      0.02083330	     -0.49016994	      0.28924059	      2.16207966	     -1.12092934	      1.40550088	     -0.04952076	      0.45218497	      0.19092517	      3.76824239	      4.51990017	      0.07888714	      9.86956188	     -0.03293052	     -6.81579265	      2.41887115	     -0.24746570	      1.29423760	      6.94826200	      0.12127005	      8.42562788	      0.51727634	     -6.81579265	     -7.40386471	     -1.44890598	      0.91004809	     -2.09717443	     -4.35856484	     -2.65146583	     29.06817578	     81.20001680	      1.74013792	     -5.73800376	      3.92047473	     25.32962937	     76.82623623
      0.02500000	     -0.69359099	      0.29211100	      2.17182267	     -1.12149621	      1.40212391	     -0.04840434	      0.60790506	      0.19392501	      3.74757519	      4.33281060	      0.07562181	      9.70538737	      0.00253944	     -7.06087291	      2.66004060	     -0.24682871	      1.48379402	      6.87699659	      0.12002623	      8.45329882	      0.33573057	     -7.06087291	     -7.15887179	     -1.46930112	      1.10068331	     -2.20810517	     -4.43026898	     -2.72483365	     29.35037429	     86.88408294	      1.84846210	     -5.73962310	      3.80664636	     25.51560673	     82.33369421
      0.02916670	     -0.73815425	      0.32265370	      2.18705664	     -1.12121320	      1.40470009	     -0.05090348	      0.65687158	      0.10416152	      3.80938709	      4.32688606	      0.07551841	      9.33527404	      0.04599082	     -7.08490937	      2.60625799	     -0.13468505	      1.72065083	      6.66659244	      0.11635399	      8.22603797	      0.28660217	     -7.08490937	     -7.10097830	     -1.49236282	      1.18299898	     -2.19526316	     -4.49629245	     -2.46507389	     29.45085452	     86.24903450	      1.98855620	     -5.54339477	      3.77846402	     25.57461643	     81.67033632
